<svg width="60" height="60" viewBox="0 0 60 60" fill="none" xmlns="http://www.w3.org/2000/svg">
<rect width="60" height="60" rx="9.13043" fill="url(#paint0_linear_975_808)"/>
<path d="M15.2631 49.2009L15.2216 49.5186H15.542C16.1214 49.5186 16.6104 49.1888 17.0122 48.6331C17.4111 48.0814 17.7492 47.276 18.0368 46.2382C18.2486 45.5129 18.5978 44.7821 19.0887 44.0457C19.549 43.3552 20.1073 42.935 20.7622 42.7568C20.8063 42.7813 20.8721 42.8233 20.9628 42.8881L20.9734 42.8957L20.9846 42.9022C21.6816 43.3088 22.4402 44.1444 23.2518 45.4549C23.569 45.994 23.8437 46.4151 24.075 46.7125L24.0907 46.7327L24.1098 46.7497C26.1902 48.6061 28.2418 49.5659 30.2599 49.5659C30.8844 49.5659 31.4934 49.4837 32.0862 49.3191L32.0862 49.3191L32.0905 49.3178C34.62 48.5719 36.8285 46.9369 38.7187 44.438L38.7197 44.4366C40.6006 41.9181 42.0653 39.0513 43.1152 35.8384C44.1947 32.6312 44.7385 29.6982 44.7385 27.0422V27.0414V27.0407V27.0399V27.0392V27.0385V27.0377V27.037V27.0362V27.0355V27.0348V27.034V27.0333V27.0325V27.0318V27.031V27.0303V27.0295V27.0288V27.0281V27.0273V27.0266V27.0258V27.0251V27.0243V27.0236V27.0228V27.0221V27.0213V27.0206V27.0198V27.0191V27.0183V27.0176V27.0168V27.0161V27.0153V27.0146V27.0138V27.0131V27.0123V27.0115V27.0108V27.01V27.0093V27.0085V27.0078V27.007V27.0063V27.0055V27.0047V27.004V27.0032V27.0025V27.0017V27.001V27.0002V26.9994V26.9987V26.9979V26.9972V26.9964V26.9956V26.9949V26.9941V26.9933V26.9926V26.9918V26.9911V26.9903V26.9895V26.9888V26.988V26.9872V26.9865V26.9857V26.9849V26.9842V26.9834V26.9826V26.9819V26.9811V26.9803V26.9796V26.9788V26.978V26.9772V26.9765V26.9757V26.9749V26.9742V26.9734V26.9726V26.9718V26.9711V26.9703V26.9695V26.9687V26.968V26.9672V26.9664V26.9656V26.9649V26.9641V26.9633V26.9625V26.9618V26.961V26.9602V26.9594V26.9586V26.9579V26.9571V26.9563V26.9555V26.9547V26.954V26.9532V26.9524V26.9516V26.9508V26.9501V26.9493V26.9485V26.9477V26.9469V26.9461V26.9453V26.9446V26.9438V26.943V26.9422V26.9414V26.9406V26.9398V26.9391V26.9383V26.9375V26.9367V26.9359V26.9351V26.9343V26.9335V26.9327V26.9319V26.9312V26.9304V26.9296V26.9288V26.928V26.9272V26.9264V26.9256V26.9248V26.924V26.9232V26.9224V26.9216V26.9208V26.92V26.9192V26.9184V26.9176V26.9168V26.916V26.9152V26.9144V26.9136V26.9128V26.912V26.9112V26.9104V26.9096V26.9088V26.908V26.9072V26.9064V26.9056V26.9048V26.904V26.9032V26.9024V26.9016V26.9008V26.9V26.8992V26.8984V26.8976V26.8968V26.896V26.8952V26.8944V26.8935V26.8927V26.8919V26.8911V26.8903V26.8895V26.8887V26.8879V26.8871V26.8862V26.8854V26.8846V26.8838V26.883V26.8822V26.8814V26.8806V26.8797V26.8789V26.8781V26.8773V26.8765V26.8757V26.8748V26.874V26.8732V26.8724V26.8716V26.8708V26.8699V26.8691V26.8683V26.8675V26.8667V26.8658V26.865V26.8642V26.8634V26.8625V26.8617V26.8609V26.8601V26.8593V26.8584V26.8576V26.8568V26.856V26.8551V26.8543V26.8535V26.8527V26.8518V26.851V26.8502V26.8493V26.8485V26.8477V26.8469V26.846V26.8452V26.8444V26.8435V26.8427V26.8419V26.841V26.8402V26.8394V26.8385V26.8377V26.8369V26.836V26.8352V26.8344V26.8335V26.8327V26.8319V26.831V26.8302V26.8294V26.8285V26.8277V26.8268V26.826V26.8252V26.8243V26.8235V26.8227V26.8218V26.821V26.8201V26.8193V26.8184V26.8176V26.8168V26.8159V26.8151V26.8142V26.8134V26.8125V26.8117V26.8109V26.81V26.8092V26.8083V26.8075V26.8066V26.8058V26.8049V26.8041V26.8032V26.8024V26.8015V26.8007V26.7998V26.799V26.7981V26.7973V26.7964V26.7956V26.7947V26.7939V26.793V26.7922V26.7913V26.7905V26.7896V26.7888V26.7879V26.7871V26.7862V26.7854V26.7845V26.7836V26.7828V26.7819V26.7811V26.7802V26.7794V26.7785V26.7776V26.7768V26.7759V26.7751V26.7742V26.7733V26.7725V26.7716V26.7708V26.7699V26.769V26.7682V26.7673V26.7664V26.7656V26.7647V26.7638V26.763V26.7621V26.7612V26.7604V26.7595V26.7586V26.7578V26.7569V26.756V26.7552V26.7543V26.7534V26.7526V26.7517V26.7508V26.75V26.7491V26.7482V26.7473V26.7465V26.7456V26.7447V26.7439V26.743V26.7421V26.7412V26.7404V26.7395V26.7386V26.7377V26.7369V26.736V26.7351V26.7342V26.7334V26.7325V26.7316V26.7307V26.7298V26.729V26.7281V26.7272V26.7263V26.7254V26.7246V26.7237V26.7228V26.7219V26.721V26.7202V26.7193V26.7184V26.7175V26.7166V26.7157V26.7149V26.714V26.7131V26.7122V26.7113V26.7104V26.7095V26.7086V26.7078V26.7069V26.706V26.7051V26.7042V26.7033V26.7024V26.7015V26.7006V26.6998V26.6989V26.698V26.6971V26.6962V26.6953V26.6944V26.6935V26.6926V26.6917V26.6908V26.6899V26.689V26.6881V26.6872V26.6863V26.6855V26.6846V26.6837V26.6828V26.6819V26.681V26.6801V26.6792V26.6783V26.6774V26.6765V26.6756V26.6747V26.6738V26.6729V26.672V26.6711V26.6702V26.6693V26.6683V26.6674V26.6665V26.6656V26.6647V26.6638V26.6629V26.662V26.6611V26.6602V26.6593V26.6584V26.6575V26.6566V26.6557V26.6548V26.6538V26.6529V26.652V26.6511V26.6502V26.6493V26.6484V26.6475V26.6466V26.6456V26.6447V26.6438V26.6429V26.642V26.6411V26.6402V26.6392V26.6383V26.6374V26.6365V26.6356V26.6347V26.6337V26.6328V26.6319V26.631V26.6301V26.6292V26.6282V26.6273V26.6264V26.6255V26.6246V26.6236V26.6227V26.6218V26.6209V26.6199V26.619V26.6181V26.6172V26.6162C44.7385 23.1301 43.8906 19.6648 42.2016 16.2229L42.2006 16.221C41.361 14.5418 40.1966 13.166 38.7085 12.0977C37.2451 10.9929 35.6572 10.434 33.9512 10.434C32.2526 10.434 30.756 10.9254 29.4736 11.9117C28.2372 12.8554 27.2634 14.0744 26.5515 15.5629L26.5504 15.5652C25.1784 18.5007 24.489 21.4279 24.489 24.3447C24.489 27.631 25.1432 30.4122 26.4679 32.674L26.4688 32.6756C27.1898 33.888 28.1901 34.8383 29.464 35.5243L29.464 35.5243L29.469 35.5269C30.748 36.1828 32.2771 36.5044 34.0459 36.5044C35.8403 36.5044 37.4087 36.2321 38.7441 35.6784L38.7441 35.6784L38.7471 35.6771C39.9655 35.155 41.1876 34.3389 42.4142 33.2365C42.3264 34.7756 41.7043 36.6547 40.5177 38.8831C39.239 41.2845 37.6021 43.4047 35.6063 45.2446C33.6416 47.0533 31.8615 47.915 30.2599 47.915C29.2585 47.915 28.344 47.5788 27.5085 46.8939C26.6789 46.1558 26.0227 45.3761 25.5358 44.5559C25.0465 43.6443 24.3804 42.817 23.5412 42.0738C22.7098 41.2773 21.7764 40.8636 20.7477 40.8636C20.4189 40.8636 20.0066 40.9535 19.523 41.1147C19.3989 41.156 19.2519 41.2317 19.0886 41.3296L19.0762 41.3371L19.0646 41.3458C18.9507 41.4312 18.8545 41.5094 18.7807 41.5792C18.691 41.6315 18.5747 41.7186 18.4424 41.8244C18.284 41.9511 18.163 42.0541 18.0879 42.1291L17.9836 42.2335C18.7475 35.1641 19.5409 28.5516 20.3637 22.396C20.5537 21.0973 20.6503 20.0416 20.6503 19.2336V18.9524H20.3691H19.4226H19.1775L19.144 19.1952L18.9572 20.5497C18.9198 20.6929 18.8841 20.9505 18.8472 21.298C18.8074 21.6714 18.764 22.1729 18.7168 22.8015L15.2631 49.2009ZM34.4005 34.6178L34.3888 34.6168H34.3772C31.5737 34.6168 29.5566 33.6971 28.2652 31.896C26.981 30.0609 26.3293 27.7393 26.3293 24.9126C26.3293 22.05 26.9202 19.2483 28.1046 16.5057C28.6871 15.1567 29.5118 14.0591 30.5776 13.2064L30.5776 13.2064L30.5813 13.2034C31.6289 12.3354 32.8189 11.9012 34.1617 11.8957C35.1202 12.0793 36.0376 12.4713 36.915 13.0764L36.9172 13.0779C39.2777 14.672 40.9817 17.2422 42.01 20.8256L42.0105 20.8271C42.5405 22.6354 42.8036 24.3438 42.8036 25.9537C42.8036 27.5587 42.5107 29.0676 41.9262 30.483C41.3287 31.892 40.4978 32.9318 39.441 33.6214C38.3835 34.3114 37.0791 34.6641 35.5129 34.6641C35.1422 34.6641 34.7714 34.6487 34.4005 34.6178Z" fill="white" stroke="white" stroke-width="0.5625"/>
<defs>
<linearGradient id="paint0_linear_975_808" x1="5.45455" y1="47.4546" x2="60" y2="30" gradientUnits="userSpaceOnUse">
<stop offset="0.145833" stop-color="#7383D8"/>
<stop offset="0.734364" stop-color="#996AF4"/>
</linearGradient>
</defs>
</svg>
