<svg width="123" height="73" viewBox="0 0 123 73" fill="none" xmlns="http://www.w3.org/2000/svg">
<path d="M0.867616 50.2169L4.03442 26.0104C4.12118 24.8536 4.19348 24.174 4.25132 23.9715L4.42484 22.7135H5.29246C5.29246 23.4365 5.2057 24.3909 5.03217 25.5766C4.25132 31.4186 3.49939 37.7088 2.77637 44.4473C2.80529 44.4183 2.90651 44.3316 3.08004 44.187C3.25356 44.0134 3.35478 43.9122 3.3837 43.8833C3.44154 43.8255 3.54277 43.7387 3.68737 43.623C3.83197 43.5073 3.93319 43.435 3.99103 43.4061C4.04888 43.3483 4.13564 43.276 4.25132 43.1892C4.39592 43.1025 4.5116 43.0446 4.59837 43.0157C5.03217 42.8711 5.37922 42.7988 5.63951 42.7988C6.50712 42.7988 7.30244 43.1458 8.02545 43.8399C8.77738 44.5051 9.37026 45.2426 9.80406 46.0523C10.2668 46.8332 10.8886 47.5707 11.6694 48.2648C12.4792 48.9299 13.3758 49.2625 14.359 49.2625C15.9208 49.2625 17.6126 48.4238 19.4346 46.7464C21.2855 45.0401 22.8038 43.0735 23.9896 40.8466C25.1753 38.6198 25.7682 36.7399 25.7682 35.2071C25.7682 35.1782 25.7537 35.1348 25.7248 35.077C25.7248 35.0192 25.7248 34.9902 25.7248 34.9902C24.4812 36.176 23.2521 37.0291 22.0375 37.5497C20.8517 38.0414 19.4491 38.2872 17.8295 38.2872C16.2389 38.2872 14.8796 37.998 13.7517 37.4196C12.6238 36.8122 11.7417 35.9735 11.1055 34.9035C9.91975 32.879 9.32687 30.3774 9.32687 27.3986C9.32687 24.7668 9.94867 22.1206 11.1922 19.4599C11.8285 18.1296 12.6961 17.045 13.7951 16.2063C14.923 15.3387 16.2389 14.9049 17.7428 14.9049C19.2466 14.9049 20.6493 15.3966 21.9507 16.3799C23.281 17.3342 24.3222 18.5634 25.0741 20.0672C26.6069 23.1907 27.3733 26.3285 27.3733 29.4809C27.3733 29.6255 27.3733 29.7556 27.3733 29.8713C27.3733 32.2717 26.8816 34.9324 25.8983 37.8534C24.944 40.7743 23.6136 43.3772 21.9073 45.6619C20.201 47.9177 18.2199 49.3782 15.9641 50.0434C15.4436 50.188 14.9085 50.2603 14.359 50.2603C12.5949 50.2603 10.7729 49.4216 8.89307 47.7442C8.69062 47.4839 8.4448 47.1079 8.15559 46.6163C7.40366 45.4016 6.68065 44.5919 5.98655 44.187C5.78411 44.0424 5.66843 43.9845 5.63951 44.0134C4.94541 44.187 4.367 44.6208 3.90427 45.3149C3.44154 46.009 3.10896 46.7031 2.90651 47.3972C2.38594 49.277 1.70631 50.2169 0.867616 50.2169ZM10.4982 27.9192C10.4982 30.5509 11.1055 32.7344 12.3202 34.4697C13.5637 36.2049 15.5014 37.0725 18.1332 37.0725C18.4802 37.1014 18.8273 37.1159 19.1743 37.1159C22.1242 37.1159 24.1631 35.7856 25.291 33.1249C25.8405 31.7945 26.1152 30.3774 26.1152 28.8735C26.1152 27.3697 25.8694 25.779 25.3778 24.1017C24.4234 20.7758 22.8328 18.3609 20.6059 16.8571C19.7672 16.2786 18.8851 15.9027 17.9597 15.7292C16.6582 15.7292 15.5014 16.1485 14.4892 16.9872C13.477 17.797 12.6961 18.8381 12.1466 20.1106C11.0476 22.6556 10.4982 25.2585 10.4982 27.9192ZM37.6112 38.9813C36.7725 41.1214 36.3531 43.1169 36.3531 44.9678C36.3531 48.0334 38.0161 49.5662 41.3419 49.5662C42.1806 49.4505 42.8024 49.277 43.2073 49.0456C43.6411 48.8143 44.1038 48.4238 44.5955 47.8743C45.0871 47.2959 45.5643 46.8187 46.027 46.4428H46.2439C46.0993 48.0623 45.5354 49.1613 44.5521 49.7397C43.5977 50.2892 42.2818 50.564 40.6044 50.564C36.9894 50.564 35.0372 49.0456 34.748 46.009C34.6034 46.7609 33.9383 47.643 32.7525 48.6552C31.5957 49.6385 30.5546 50.1301 29.6291 50.1301C29.5713 50.1301 29.499 50.1301 29.4122 50.1301C27.6191 49.6385 26.7226 48.5684 26.7226 46.92C26.7226 44.7798 27.836 42.6976 30.0629 40.6731C31.7981 39.0825 33.49 38.2872 35.1385 38.2872C36.0639 38.2872 36.8882 38.5185 37.6112 38.9813ZM28.0674 46.7031C28.0674 47.1658 28.0818 47.5418 28.1108 47.831C28.1686 48.0912 28.3132 48.3371 28.5446 48.5684C28.8049 48.7998 29.1664 48.9155 29.6291 48.9155C30.9016 48.8576 32.1741 47.8454 33.4466 45.8788C34.748 43.8833 35.4421 42.177 35.5289 40.7599C35.0662 40.1815 34.4299 39.8923 33.6201 39.8923C32.579 39.8923 31.4945 40.5574 30.3666 41.8878C29.2387 43.2181 28.4723 44.8232 28.0674 46.7031ZM54.0091 45.4884C54.0091 44.9678 54.0091 44.0713 54.0091 42.7988C54.038 41.4974 54.0525 40.3839 54.0525 39.4585C53.2427 39.632 52.057 40.6731 50.4953 42.5819C48.9625 44.4906 48.1238 45.4884 47.9792 45.5752C46.8513 47.079 45.9692 48.1491 45.3329 48.7853C45.0727 49.1324 44.6533 49.3059 44.0749 49.3059V48.3515L45.9403 42.3216C45.9403 40.2104 46.3018 38.6487 47.0248 37.6365C47.2272 37.3473 47.4152 37.2027 47.5888 37.2027C47.878 37.2027 48.0226 37.6943 48.0226 38.6776C48.0226 39.632 47.878 40.702 47.5888 41.8878C47.2995 43.0446 47.1549 44.0134 47.1549 44.7943C47.3863 44.5629 48.0804 43.7532 49.2372 42.365C50.394 40.9768 51.0881 40.167 51.3195 39.9357C51.5219 39.82 51.869 39.5308 52.3606 39.068C53.4018 38.1426 54.3128 37.6798 55.0936 37.6798C55.5274 37.6798 55.8022 37.8245 55.9179 38.1137C55.9468 38.4318 55.9612 38.9524 55.9612 39.6754C55.9612 40.3695 55.8456 41.4829 55.6142 43.0157C55.3828 44.5196 55.2527 45.7198 55.2238 46.6163C55.2238 47.9756 55.7877 48.6552 56.9156 48.6552C57.7254 48.6552 58.5063 48.4383 59.2582 48.0045C60.0101 47.5418 60.6175 47.0356 61.0802 46.4862C61.5429 45.9077 62.0779 45.257 62.6853 44.534C63.2926 43.7821 63.8276 43.2326 64.2904 42.8855V43.3194C64.2904 44.7075 63.3938 46.1536 61.6008 47.6574C59.8077 49.1324 58.1737 49.8699 56.6987 49.8699H55.2672C54.8333 49.5807 54.5441 49.3059 54.3995 49.0456C54.2839 48.7853 54.1971 48.5974 54.1393 48.4817C54.0814 48.366 54.038 48.1925 54.0091 47.9611C54.0091 47.7008 54.0091 47.5128 54.0091 47.3972V45.4884ZM63.3794 40.7165L63.5529 40.1526C64.1313 38.3016 64.6229 37.3762 65.0278 37.3762C65.6062 37.3762 65.8955 37.5931 65.8955 38.0269C65.8955 38.1137 65.881 38.2004 65.8521 38.2872C64.7531 40.9768 64.2036 43.5363 64.2036 45.9656C64.2036 47.0646 64.4783 47.99 65.0278 48.742C65.5773 49.465 66.416 49.8265 67.5439 49.8265C70.3781 48.7275 72.1567 48.178 72.8798 48.178C73.1111 48.178 73.2268 48.2358 73.2268 48.3515C73.2268 48.6986 72.4749 49.2047 70.971 49.8699C69.4671 50.5061 68.2814 50.8242 67.4138 50.8242C66.5751 50.8242 65.9388 50.7519 65.505 50.6073C65.0712 50.4916 64.7531 50.376 64.5506 50.2603C64.3482 50.1446 64.1024 49.8988 63.8132 49.5228C63.524 49.1179 63.336 48.5974 63.2492 47.9611C63.1625 47.2959 63.1191 46.356 63.1191 45.1413C63.1191 43.9267 63.2058 42.4517 63.3794 40.7165ZM71.7952 45.445C71.7663 45.1847 71.7519 44.9389 71.7519 44.7075C71.7519 42.8566 72.3592 40.9479 73.5739 38.9813C74.8174 37.0147 76.4081 36.0314 78.3457 36.0314C78.7217 36.0314 79.0254 36.1471 79.2567 36.3784C79.4881 36.5809 79.6038 36.9424 79.6038 37.4629C79.6038 37.9546 79.4592 38.5475 79.17 39.2416C78.9097 39.9067 78.4903 40.5864 77.9119 41.2805C77.3624 41.9745 76.8853 42.5385 76.4804 42.9723C76.0755 43.4061 75.4971 43.9701 74.7451 44.6642C74.0221 45.3583 73.5883 45.7776 73.4437 45.9222C73.4148 46.1536 73.4003 46.2837 73.4003 46.3126C73.4003 47.0935 73.7763 47.7008 74.5282 48.1346C75.2802 48.5684 76.061 48.7853 76.8708 48.7853C78.8085 48.7853 80.3413 48.4383 81.4692 47.7442C82.626 47.0501 83.9563 45.8788 85.4602 44.2304C85.6916 43.9411 85.8217 43.7098 85.8506 43.5363C85.9085 43.3627 86.0675 43.1748 86.3278 42.9723C86.617 43.088 86.7616 43.3627 86.7616 43.7965C86.4724 44.6931 85.894 45.6619 85.0264 46.7031C84.1588 47.7153 83.1321 48.5829 81.9464 49.3059C80.2979 50.2603 78.8952 50.7375 77.7384 50.7375C76.6105 50.7375 75.5115 50.347 74.4415 49.5662C73.3714 48.7853 72.4893 47.4116 71.7952 45.445ZM78.4325 37.6365C77.1889 37.6365 76.0321 38.3016 74.962 39.632C73.892 40.9623 73.357 42.2348 73.357 43.4495C73.357 43.8544 73.3859 44.1436 73.4437 44.3171C74.5138 43.7387 75.6128 42.7554 76.7407 41.3672C77.8686 39.9501 78.4325 38.7065 78.4325 37.6365ZM86.1109 44.9678C86.2266 41.7287 87.152 37.7955 88.8873 33.1682C90.6225 28.541 92.083 26.0249 93.2687 25.62C93.6158 25.62 93.8616 25.9526 94.0062 26.6177C94.1508 27.2829 94.2231 27.8324 94.2231 28.2662C94.2231 29.8279 93.8905 31.6788 93.2254 33.819C92.5602 35.9302 91.7793 37.6365 90.8828 38.9379C90.5358 39.5163 90.0586 40.1236 89.4512 40.7599C88.8728 41.3961 88.4246 41.989 88.1064 42.5385C87.8172 43.0591 87.6726 43.7242 87.6726 44.534C87.6726 45.98 88.063 47.1658 88.8439 48.0912C89.6537 49.0167 90.7816 49.4794 92.2276 49.4794C94.628 49.4794 96.1463 48.6552 96.7826 47.0067H97.2598C97.2598 48.1346 96.6958 49.0312 95.5679 49.6963C94.44 50.3615 93.1675 50.6941 91.7504 50.6941C90.3333 50.6941 89.1186 50.1591 88.1064 49.089C87.0942 47.99 86.429 46.6163 86.1109 44.9678ZM93.0952 28.5265C92.8639 28.7868 92.4734 29.3941 91.9239 30.3485C91.4034 31.3029 91.0997 31.9247 91.0129 32.2139C89.0753 37.275 88.1064 40.008 88.1064 40.4128C89.3211 39.5741 90.449 37.8245 91.4901 35.1638C92.5313 32.4742 93.0663 30.2617 93.0952 28.5265ZM96.0451 45.445C96.0162 45.1847 96.0017 44.9389 96.0017 44.7075C96.0017 42.8566 96.6091 40.9479 97.8237 38.9813C99.0673 37.0147 100.658 36.0314 102.596 36.0314C102.972 36.0314 103.275 36.1471 103.507 36.3784C103.738 36.5809 103.854 36.9424 103.854 37.4629C103.854 37.9546 103.709 38.5475 103.42 39.2416C103.16 39.9067 102.74 40.5864 102.162 41.2805C101.612 41.9745 101.135 42.5385 100.73 42.9723C100.325 43.4061 99.7469 43.9701 98.995 44.6642C98.272 45.3583 97.8382 45.7776 97.6936 45.9222C97.6647 46.1536 97.6502 46.2837 97.6502 46.3126C97.6502 47.0935 98.0262 47.7008 98.7781 48.1346C99.53 48.5684 100.311 48.7853 101.121 48.7853C103.058 48.7853 104.591 48.4383 105.719 47.7442C106.876 47.0501 108.206 45.8788 109.71 44.2304C109.941 43.9411 110.072 43.7098 110.101 43.5363C110.158 43.3627 110.317 43.1748 110.578 42.9723C110.867 43.088 111.012 43.3627 111.012 43.7965C110.722 44.6931 110.144 45.6619 109.276 46.7031C108.409 47.7153 107.382 48.5829 106.196 49.3059C104.548 50.2603 103.145 50.7375 101.988 50.7375C100.86 50.7375 99.7614 50.347 98.6913 49.5662C97.6213 48.7853 96.7392 47.4116 96.0451 45.445ZM102.682 37.6365C101.439 37.6365 100.282 38.3016 99.2119 39.632C98.1419 40.9623 97.6068 42.2348 97.6068 43.4495C97.6068 43.8544 97.6358 44.1436 97.6936 44.3171C98.7637 43.7387 99.8626 42.7554 100.991 41.3672C102.118 39.9501 102.682 38.7065 102.682 37.6365Z" fill="#1F0433"/>
<path d="M68.2058 28.9931C67.7461 30.7153 68.7034 32.4887 70.3955 33.0494L70.4323 33.0616L70.3948 33.0519C68.6683 32.6044 66.8799 33.5679 66.3039 35.2559C66.7636 33.5336 65.8063 31.7603 64.1142 31.1995L64.0774 31.1873L64.1149 31.1971C65.8414 31.6446 67.6298 30.681 68.2058 28.9931Z" fill="#D57CF4"/>
<path d="M119.379 48.3512C118.973 48.3512 118.631 48.2109 118.35 47.9304C118.069 47.6498 117.929 47.3069 117.929 46.9017C117.929 46.4964 118.069 46.1535 118.35 45.8729C118.631 45.5924 118.973 45.4521 119.379 45.4521C119.768 45.4521 120.096 45.5924 120.361 45.8729C120.641 46.1535 120.781 46.4964 120.781 46.9017C120.781 47.3069 120.641 47.6498 120.361 47.9304C120.096 48.2109 119.768 48.3512 119.379 48.3512Z" fill="#D57CF4"/>
</svg>
